PathFileType	4	(X/Y/Z)	Patient4_TMGait_0pt6_02_left_22.trc.trc
DataRate	CameraRate	NumFrames	NumMarkers	Units	OrigDataRate	OrigDataStartFrame	OrigNumFrames
83.333333333333	83.333333333333	5	33	mm	83.333333333333	124	       141
Frame#	Time	Sacral			L.Shoulder			Chest			R.Shoulder			Neck			R.ASIS			L.ASIS			R.Thigh.Superior			R.Thigh.Lateral			R.Thigh.Inferior			R.Patella			L.Thigh.Superior			L.Thigh.Lateral			L.Thigh.Inferior			L.Patella			L.Shank.Superior			L.Shank.Lateral			L.Shank.Inferior			R.Shank.Superior			R.Shank.Lateral			R.Shank.Inferior			R.Heel			R.Midfoot.Superior			R.Midfoot.Lateral			R.Toe			L.Heel			L.Midfoot.Lateral			L.Midfoot.Superior			L.Toe			L.Elbow			L.Wrist			R.Elbow			R.Wrist			
		X1	Y1	Z1	X2	Y2	Z2	X3	Y3	Z3	X4	Y4	Z4	X5	Y5	Z5	X6	Y6	Z6	X7	Y7	Z7	X8	Y8	Z8	X9	Y9	Z9	X10	Y10	Z10	X11	Y11	Z11	X12	Y12	Z12	X13	Y13	Z13	X14	Y14	Z14	X15	Y15	Z15	X16	Y16	Z16	X17	Y17	Z17	X18	Y18	Z18	X19	Y19	Z19	X20	Y20	Z20	X21	Y21	Z21	X22	Y22	Z22	X23	Y23	Z23	X24	Y24	Z24	X25	Y25	Z25	X26	Y26	Z26	X27	Y27	Z27	X28	Y28	Z28	X29	Y29	Z29	X30	Y30	Z30	X31	Y31	Z31	X32	Y32	Z32	X33	Y33	Z33	

124	28.426000000000	826.101930739112	1005.373514176437	477.157477577687	994.572001358644	1421.170929623323	276.149640209433	1114.836099652727	1346.723375082988	420.488616793374	1062.002919623157	1428.402717579452	600.874034820830	1018.831538479292	1483.985578904857	425.579052943414	1056.131622649696	929.700405100715	573.823865467950	1021.808674229802	950.313617312074	301.208829436963	1050.216348418874	716.465426550717	546.137764763312	946.470343631679	625.302291376470	611.029044562599	1002.304844044740	558.213315566539	528.505011024829	980.545451656140	473.042755572065	532.818544057206	1098.149914235442	767.708177526892	336.925869158917	1045.970711466433	636.943153762725	265.476843162670	1149.276297585281	580.265376694671	328.329832127806	1172.153422900670	512.756326930419	329.123732830146	1155.069459232809	439.350846654243	319.617481898461	1086.175256237977	309.831884986876	272.216620786381	1170.505407714826	210.871212358287	330.756314114566	939.921471093630	390.644535789348	541.272611772870	854.163354187457	299.715886342645	605.377678624382	876.899478762947	199.815253530719	540.955045957859	722.276515961035	44.408030628098	512.656580150596	893.598144455663	96.473519314298	549.902596506431	804.214710263864	37.146995673853	588.308437221750	1012.783821282124	40.180808113831	581.110565893710	1081.734632186315	39.599312774949	375.450258457079	1153.638478006585	39.464363037989	293.320454483948	1229.869479340172	110.519612323630	313.293077918086	1360.843814582166	71.372544613539	284.240502380141	861.096069937969	1084.530008629611	193.877080108611	840.691639458680	825.311768569442	215.692530197702	1225.622738335526	1136.459748893901	700.765429546207	1377.774714275607	1290.415762574271	582.053732424569	
125	28.438000000000	827.693817198252	1004.040070205812	474.764651028012	994.699087680657	1420.160580538825	273.836012437848	1115.111324412034	1346.270280897700	418.356471234089	1061.635771081143	1427.531395061515	598.807905806929	1018.503829977332	1483.143261403961	423.321080969013	1057.817595560671	928.533575545167	571.950005969996	1023.825136682476	948.966111767747	299.437288325272	1050.905242868641	715.101594150070	544.894866482742	946.028987459396	624.577130905183	609.511448722328	1001.777199169802	556.831814349136	527.461546197232	979.198345659685	471.223736468985	531.674898015235	1099.765720258276	765.366123423980	334.866286675626	1045.207136239531	634.906966392387	264.623991384089	1148.583556930727	577.777615565388	327.172358964096	1169.883873586873	509.548200034762	328.744237214907	1152.407557208143	436.084353517052	319.281875584925	1082.039417058378	307.306858769708	271.925649527421	1164.707280638526	207.507230880308	331.264960882211	937.240205526966	389.536936707590	540.350830563107	850.142922836826	300.001156628030	604.772941991112	871.444206737288	199.578931040930	540.680772716495	715.075651162221	45.316514531809	512.875874550646	886.718201636715	96.556242403538	550.028953310168	797.064064047793	37.481860243359	588.373274623491	1005.654135763772	39.816536852100	581.236732933645	1072.516022851728	38.817746629362	376.013207781486	1144.410844128075	37.475338111640	293.739916011262	1222.582406960263	106.189450199150	314.566786402526	1352.846770398236	63.574911087284	285.188476572837	862.123198437992	1083.176004547786	191.518001870491	844.065806727335	823.625355847020	213.385682025572	1225.277492091720	1134.948261295552	698.873260374369	1376.008793757426	1289.520142589804	578.756972963857	
126	28.450000000000	829.166861884393	1002.969419451774	472.371472737709	994.951858143426	1419.311241406631	271.436537864730	1115.487994903579	1345.939163849105	416.157829795115	1061.412492040994	1426.847890394787	596.680427808513	1018.351356836154	1482.495260068025	420.953745621389	1059.416469206396	927.527915735359	569.916741789425	1025.670417008391	947.919246189264	297.544621670684	1051.805793002401	713.934185038709	543.445313467815	946.033377037887	623.911771403212	607.834583310473	1001.791054655844	555.589170045406	526.197665890527	978.555224070998	469.329256430324	530.442361365379	1101.298794893832	763.551498492164	332.840640050805	1044.825278824481	633.534124453280	263.549695836946	1148.078162078519	575.911128397869	326.025854886843	1167.912007591953	507.015128938611	328.271024819920	1150.096908010118	433.421160373530	318.829731557574	1078.431389475597	305.386367347803	271.288680100562	1159.237208230473	204.750204014224	331.635779928831	935.056612017495	388.470465980317	539.357011964375	846.486651454311	300.501353880636	604.099081238596	866.257810512746	199.520574439146	540.406331097679	707.913057954488	46.670445929225	513.135183724175	880.016144379463	96.686669565074	550.195254385033	789.949636978366	38.020175717905	588.439202368156	998.555134352240	39.431840181394	581.356901961124	1063.683342373111	38.308452872841	376.279196990986	1135.660311972310	36.057987912618	293.963518529336	1215.442943993601	102.729264338743	315.743073288705	1345.123078494574	57.202683291795	286.208456585167	863.891164616331	1081.672244696171	188.958616248873	848.317140949704	821.792425864332	210.672005462266	1224.073798101259	1132.885569177819	697.242512908509	1374.482927376524	1287.263366386316	575.810705818418	
127	28.462000000000	830.485726004975	1002.244476463798	470.003885499330	995.323003958132	1418.702873009388	268.988545923546	1115.965968910013	1345.774325182847	413.903817589550	1061.390353686686	1426.423883001133	594.496833850378	1018.402047116211	1482.104283064490	418.512909966031	1060.865511458203	926.777436091450	567.715917991661	1027.282743471443	947.248253902568	295.500824696535	1052.896380352438	713.047337837838	541.762211993220	946.544658175450	623.337335000629	606.012181232219	1002.442839756790	554.543683326374	524.718030000380	978.765348282963	467.384844116938	529.192447593984	1102.707952867813	762.382963998597	330.838435255970	1044.790793386124	632.855694634239	262.262110092753	1147.724780422615	574.698154145743	324.818419156411	1166.228291182338	505.194184499674	327.631280928677	1148.109069298211	431.403435530455	318.225353377194	1075.292028757079	304.104781368718	270.348439160857	1154.099954680462	202.646896051499	331.833248748745	933.483466855535	387.479105130427	538.331095456290	843.281026805099	301.288672549421	603.367719130303	861.428698897056	199.708479876051	540.154085111228	700.836936919310	48.612668853467	513.424136966729	873.554597830744	96.892696477166	550.415030679705	782.897203818467	38.844345048052	588.496763764111	991.487958561664	39.035782031029	581.462794202195	1055.371715196974	38.039124142915	376.322080024169	1127.473967558800	35.172127039810	294.024897644171	1208.490848867050	100.195059632249	316.729255786053	1337.723097241239	52.423715340393	287.148999298936	866.384304217216	1080.122993137316	186.231359177872	853.418433427224	819.925712624724	207.551143984726	1221.983847837414	1130.357659548256	695.837373648746	1373.261764541562	1283.629744273117	573.225848035031	
128	28.474000000000	831.630892990611	1001.919281570324	467.670500928933	995.798131920287	1418.398031004858	266.524873572522	1116.533986366261	1345.809497126401	411.606815175984	1061.599219598167	1426.314695440816	592.260751406323	1018.661306072341	1482.013743896106	416.033414462761	1062.113510926780	926.363774925058	565.355040751875	1028.632345327698	946.992149887348	293.285645147799	1054.171728527578	712.513712615982	539.847463694530	947.628248545221	622.877398819648	604.071997798274	1003.842387352477	553.744127170933	523.053593612926	979.980979020709	465.421634854215	528.013256612915	1103.968532642229	761.897031592779	328.834925464631	1044.998623077729	632.817187580117	260.797245086096	1147.435782789138	574.073792990513	323.486098223645	1164.752340463565	504.022915809169	326.782043347018	1146.335483581458	429.990397703260	317.462399287348	1072.460837361064	303.420364233175	269.189924610414	1149.210700923373	201.163598853532	331.849652405824	932.648698575621	386.595332144113	537.322369073596	840.631416165437	302.433660689344	602.594191392629	857.060496831211	200.212228195894	539.947320950033	693.919033174373	51.297782503294	513.726612147309	867.403968287457	97.209147177297	550.696646170873	775.946706561579	40.056334200115	588.536952769728	984.453067390592	38.638874106459	581.544962729007	1047.587628564398	37.958257519450	376.211523867176	1119.821447911864	34.727648323038	293.962083538500	1201.697921990415	98.530195012426	317.471548258570	1330.615428921544	49.195444021392	287.907921399629	869.559314205288	1078.635754574252	183.361363704988	859.349127732493	818.142476715068	204.030266734215	1218.976769252306	1127.477070553633	694.608432260297	1372.384910254406	1278.583213202575	571.014878072146	
